<svg width="168" height="31" viewBox="0 0 168 31" fill="none" xmlns="http://www.w3.org/2000/svg">
<defs>
<radialGradient id="paint0_radial_1_3481" cx="0" cy="0" r="1" gradientUnits="userSpaceOnUse" gradientTransform="translate(87.9999 15.4999) scale(14.9075 15.5973)">
<stop offset="2.23767e-07" stop-color="#CFCFFA"/>
<stop offset="1" stop-color="#767FF7"/>
</radialGradient>
<clipPath id="clip0_1_3481">
<rect width="30" height="31" fill="white" transform="translate(73)"/>
</clipPath>
</defs>
<g opacity="0.75">
<g clip-path="url(#clip0_1_3481)">
<path d="M73.5887 21.7133L73.5881 21.7178C73.2511 23.8733 73.9124 25.461 75.0964 26.6657C76.3024 27.8927 78.0725 28.7414 79.9588 29.3207C83.728 30.4782 87.7536 30.4998 87.9934 30.4998H87.9935H87.9935H87.9936H87.9936H87.9937H87.9937H87.9938H87.9938H87.9939H87.9939H87.994H87.994H87.9941H87.9941H87.9942H87.9942H87.9943H87.9943H87.9944H87.9944H87.9945H87.9945H87.9946H87.9946H87.9947H87.9947H87.9947H87.9948H87.9948H87.9949H87.9949H87.995H87.995H87.9951H87.9951H87.9952H87.9952H87.9953H87.9953H87.9954H87.9954H87.9954H87.9955H87.9955H87.9956H87.9956H87.9957H87.9957H87.9958H87.9958H87.9958H87.9959H87.9959H87.996H87.996H87.9961H87.9961H87.9962H87.9962H87.9962H87.9963H87.9963H87.9964H87.9964H87.9965H87.9965H87.9965H87.9966H87.9966H87.9967H87.9967H87.9968H87.9968H87.9968H87.9969H87.9969H87.997H87.997H87.9971H87.9971H87.9971H87.9972H87.9972H87.9973H87.9973H87.9973H87.9974H87.9974H87.9975H87.9975H87.9975H87.9976H87.9976H87.9977H87.9977H87.9977H87.9978H87.9978H87.9979H87.9979H87.9979H87.998H87.998H87.9981H87.9981H87.9981H87.9982H87.9982H87.9983H87.9983H87.9983H87.9984H87.9984H87.9984H87.9985H87.9985H87.9986H87.9986H87.9986H87.9987H87.9987H87.9987H87.9988H87.9988H87.9989H87.9989H87.9989H87.999H87.999H87.999H87.9991H87.9991H87.9991H87.9992H87.9992H87.9993H87.9993H87.9993H87.9994H87.9994H87.9994H87.9995H87.9995H87.9995H87.9996H87.9996H87.9996H87.9997H87.9997H87.9997H87.9998H87.9998H87.9998H87.9999H87.9999H87.9999H88H88H88.0001H88.0001H88.0001H88.0001H88.0002H88.0002H88.0002H88.0003H88.0003H88.0003H88.0004H88.0004H88.0004H88.0005H88.0005H88.0005H88.0006H88.0006H88.0006H88.0007H88.0007H88.0007H88.0008H88.0008H88.0008H88.0009H88.0009H88.0009H88.0009H88.001H88.001H88.001H88.0011H88.0011H88.0011H88.0012H88.0012H88.0012H88.0012H88.0013H88.0013H88.0013H88.0014H88.0014H88.0014H88.0014H88.0015H88.0015H88.0015H88.0016H88.0016H88.0016H88.0016H88.0017H88.0017H88.0017H88.0018H88.0018H88.0018H88.0018H88.0019H88.0019H88.0019H88.0019H88.002H88.002H88.002H88.0021H88.0021H88.0021H88.0021H88.0022H88.0022H88.0022H88.0022H88.0023H88.0023H88.0023H88.0023H88.0024H88.0024H88.0024H88.0024H88.0025H88.0025H88.0025H88.0025H88.0026H88.0026H88.0026H88.0026H88.0027H88.0027H88.0027H88.0027H88.0028H88.0028H88.0028H88.0028H88.0029H88.0029H88.0029H88.0029H88.0029H88.003H88.003H88.003H88.003H88.0031H88.0031H88.0031H88.0031H88.0032H88.0032H88.0032H88.0032H88.0032H88.0033H88.0033H88.0033H88.0033H88.0033H88.0034H88.0034H88.0034H88.0034H88.0035H88.0035H88.0035H88.0035H88.0035H88.0036H88.0036H88.0036H88.0036H88.0036H88.0037H88.0037H88.0037H88.0037H88.0037H88.0038H88.0038H88.0038H88.0038H88.0038H88.0038H88.0039H88.0039H88.0039H88.0039H88.0039H88.004H88.004H88.004H88.004H88.004H88.0041H88.0041H88.0041H88.0041H88.0041H88.0041H88.0042H88.0042H88.0042H88.0042H88.0042H88.0042H88.0043H88.0043H88.0043H88.0043H88.0043H88.0043H88.0044H88.0044H88.0044H88.0044H88.0044H88.0044H88.0045H88.0045H88.0045H88.0045H88.0045H88.0045H88.0045H88.0046H88.0046H88.0046H88.0046H88.0046H88.0046H88.0046H88.0047H88.0047H88.0047H88.0047H88.0048H88.0048H88.0048H88.0048H88.0049H88.0049H88.0049H88.0049H88.005H88.005H88.005H88.005H88.0051H88.0051H88.0051H88.0051H88.0051H88.0052H88.0052H88.0052H88.0052H88.0052H88.0053H88.0053H88.0053H88.0053H88.0053H88.0054H88.0054H88.0054H88.0054H88.0054H88.0054H88.0055H88.0055H88.0055H88.0055H88.0055H88.0055H88.0056H88.0056H88.0056H88.0056H88.0056H88.0056H88.0057H88.0057H88.0057H88.0057H88.0057H88.0057H88.0058H88.0058C88.2516 30.4998 92.4346 30.4772 96.2661 29.2501C98.1838 28.6359 99.9559 27.7376 101.114 26.4414C102.248 25.1721 102.825 23.4868 102.31 21.1804C102.302 21.1459 102.295 21.1144 102.289 21.0842C102.277 21.0333 102.267 20.9862 102.255 20.9356L102.252 20.9233L102.252 20.9233C102.244 20.8873 102.237 20.8566 102.229 20.821C102.223 20.7982 102.218 20.7735 102.211 20.7441C102.181 20.6154 102.151 20.4865 102.12 20.3559L102.12 20.3543L102.112 20.322C102.056 20.0869 102 19.8527 101.942 19.6201L101.941 19.6187C101.385 17.3649 100.708 15.1498 99.8313 13.0271L99.8312 13.0268C99.0658 11.1696 98.0987 9.49454 96.9669 7.83364C95.2986 5.3865 93.3836 2.80057 90.9819 1.30929L90.9817 1.30913C90.0791 0.747884 89.0414 0.418066 88.0498 0.517206L88.0001 0.522179L87.9503 0.517206C86.9587 0.418059 85.9201 0.747931 85.0176 1.30913L85.0173 1.30929C82.6157 2.80055 80.7007 5.38643 79.0323 7.83354C77.9006 9.49438 76.9334 11.1695 76.1671 13.0268L73.5887 21.7133ZM73.5887 21.7133C73.5975 21.6538 73.6071 21.5938 73.6178 21.5324M73.5887 21.7133L73.6178 21.5324M73.6178 21.5324C73.638 21.4184 73.662 21.3012 73.6891 21.1802C73.7428 20.9417 73.7975 20.704 73.8532 20.4648C73.8893 20.3119 73.9249 20.161 73.9613 20.0114L73.9615 20.0107C73.9957 19.8696 74.0296 19.7297 74.0644 19.5891C74.0972 19.4564 74.1295 19.3261 74.1626 19.1971L74.1635 19.1942C74.1652 19.188 74.1673 19.1802 74.1695 19.1712C74.232 18.9252 74.2962 18.6801 74.363 18.4365L74.3631 18.4366L74.3655 18.427C74.3743 18.3922 74.3813 18.3648 74.3887 18.3384L74.3887 18.3384L74.39 18.3337C74.8801 16.5237 75.4592 14.7452 76.1669 13.027L73.6178 21.5324ZM74.1579 19.2127L74.1585 19.2106C74.158 19.2122 74.1576 19.2136 74.1579 19.2127ZM102.111 20.3156L102.111 20.3158L102.111 20.3156Z" fill="url(#paint0_radial_1_3481)" stroke="white"/>
<path d="M93.5001 8.26671C93.5001 9.14754 92.8132 9.83338 92.0001 9.83338C91.187 9.83338 90.5001 9.14754 90.5001 8.26671C90.5001 7.38588 91.187 6.70004 92.0001 6.70004C92.8132 6.70004 93.5001 7.38588 93.5001 8.26671Z" fill="#D7D9FF" stroke="white"/>
<path d="M73.5878 21.7177L73.5885 21.7132C73.5972 21.6537 73.6069 21.5938 73.6176 21.5323C73.6378 21.4183 73.6618 21.301 73.6889 21.18C73.7426 20.9415 73.7973 20.7038 73.853 20.4648C73.889 20.3118 73.9246 20.1609 73.9611 20.0113L73.9612 20.0107C73.9954 19.8695 74.0293 19.7296 74.0641 19.589C74.097 19.4563 74.1293 19.326 74.1624 19.197L74.1632 19.1941C74.165 19.1879 74.1671 19.1802 74.1692 19.1711C74.2182 18.9786 74.2682 18.7865 74.3196 18.5953C75.158 17.9381 76.0733 17.1579 76.8495 16.345C77.6235 15.5344 78.3025 14.6475 78.5967 13.7852C78.9732 12.6823 79.418 12.0891 79.8361 11.7911C80.2369 11.5054 80.6664 11.453 81.1252 11.5533C81.6001 11.6572 82.096 11.9249 82.5659 12.2687C83.0315 12.6092 83.4436 13.0037 83.7496 13.3269L83.7496 13.327C84.3143 13.9233 85.2109 14.0515 85.9106 13.6026L85.9109 13.6024C86.6441 13.1313 87.6174 12.2509 88.5624 10.6217C89.1171 9.66582 90.2434 9.31592 91.1654 9.7806C92.9793 10.6959 96.1319 13.0917 101.379 19.0185C101.591 19.2582 101.787 19.4924 101.967 19.722C102.016 19.9211 102.064 20.1212 102.112 20.322L102.12 20.3542L102.12 20.3559C102.151 20.4864 102.181 20.6154 102.211 20.7441C102.217 20.7734 102.223 20.7981 102.228 20.8209C102.237 20.8565 102.244 20.8872 102.252 20.9232L102.252 20.9232L102.254 20.9355C102.267 20.986 102.277 21.0331 102.288 21.084C102.295 21.1143 102.302 21.1458 102.31 21.1803C102.825 23.4867 102.247 25.172 101.114 26.4413C99.9557 27.7375 98.1836 28.6358 96.2659 29.25C92.4344 30.4771 88.2514 30.4998 88.0055 30.4998H88.0055H88.0055H88.0055H88.0055H88.0054H88.0054H88.0054H88.0054H88.0054H88.0054H88.0054H88.0053H88.0053H88.0053H88.0053H88.0053H88.0052H88.0052H88.0052H88.0052H88.0052H88.0052H88.0051H88.0051H88.0051H88.0051H88.0051H88.0051H88.005H88.005H88.005H88.005H88.005H88.0049H88.0049H88.0049H88.0049H88.0048H88.0048H88.0048H88.0048H88.0048H88.0047H88.0047H88.0047H88.0047H88.0046H88.0046H88.0046H88.0046H88.0045H88.0045H88.0045H88.0044H88.0044H88.0044H88.0044H88.0043H88.0043H88.0043H88.0043H88.0042H88.0042H88.0042H88.0042H88.0042H88.0042H88.0041H88.0041H88.0041H88.0041H88.0041H88.0041H88.004H88.004H88.004H88.004H88.004H88.004H88.0039H88.0039H88.0039H88.0039H88.0039H88.0039H88.0038H88.0038H88.0038H88.0038H88.0038H88.0038H88.0037H88.0037H88.0037H88.0037H88.0037H88.0036H88.0036H88.0036H88.0036H88.0036H88.0035H88.0035H88.0035H88.0035H88.0035H88.0035H88.0034H88.0034H88.0034H88.0034H88.0034H88.0033H88.0033H88.0033H88.0033H88.0033H88.0032H88.0032H88.0032H88.0032H88.0031H88.0031H88.0031H88.0031H88.0031H88.003H88.003H88.003H88.003H88.003H88.0029H88.0029H88.0029H88.0029H88.0028H88.0028H88.0028H88.0028H88.0028H88.0027H88.0027H88.0027H88.0027H88.0026H88.0026H88.0026H88.0026H88.0025H88.0025H88.0025H88.0025H88.0024H88.0024H88.0024H88.0024H88.0023H88.0023H88.0023H88.0023H88.0022H88.0022H88.0022H88.0022H88.0021H88.0021H88.0021H88.0021H88.002H88.002H88.002H88.002H88.0019H88.0019H88.0019H88.0019H88.0018H88.0018H88.0018H88.0018H88.0017H88.0017H88.0017H88.0017H88.0016H88.0016H88.0016H88.0015H88.0015H88.0015H88.0015H88.0014H88.0014H88.0014H88.0013H88.0013H88.0013H88.0013H88.0012H88.0012H88.0012H88.0011H88.0011H88.0011H88.0011H88.001H88.001H88.001H88.0009H88.0009H88.0009H88.0009H88.0008H88.0008H88.0008H88.0007H88.0007H88.0007H88.0006H88.0006H88.0006H88.0005H88.0005H88.0005H88.0005H88.0004H88.0004H88.0004H88.0003H88.0003H88.0003H88.0002H88.0002H88.0002H88.0001H88.0001H88.0001H88H88H88H87.9999H87.9999H87.9999H87.9998H87.9998H87.9998H87.9997H87.9997H87.9997H87.9996H87.9996H87.9996H87.9995H87.9995H87.9995H87.9994H87.9994H87.9994H87.9993H87.9993H87.9993H87.9992H87.9992H87.9992H87.9991H87.9991H87.999H87.999H87.999H87.9989H87.9989H87.9989H87.9988H87.9988H87.9988H87.9987H87.9987H87.9987H87.9986H87.9986H87.9985H87.9985H87.9985H87.9984H87.9984H87.9984H87.9983H87.9983H87.9982H87.9982H87.9982H87.9981H87.9981H87.9981H87.998H87.998H87.9979H87.9979H87.9979H87.9978H87.9978H87.9977H87.9977H87.9977H87.9976H87.9976H87.9975H87.9975H87.9975H87.9974H87.9974H87.9973H87.9973H87.9973H87.9972H87.9972H87.9971H87.9971H87.9971H87.997H87.997H87.9969H87.9969H87.9969H87.9968H87.9968H87.9967H87.9967H87.9966H87.9966H87.9966H87.9965H87.9965H87.9964H87.9964H87.9963H87.9963H87.9963H87.9962H87.9962H87.9961H87.9961H87.996H87.996H87.996H87.9959H87.9959H87.9958H87.9958H87.9957H87.9957H87.9957H87.9956H87.9956H87.9955H87.9955H87.9954H87.9954H87.9953H87.9953H87.9952H87.9952H87.9952H87.9951H87.9951H87.995H87.995H87.9949H87.9949H87.9948H87.9948H87.9947H87.9947H87.9946H87.9946H87.9946H87.9945H87.9945H87.9944H87.9944H87.9943H87.9943H87.9942H87.9942H87.9941H87.9941H87.994H87.994H87.9939H87.9939H87.9938H87.9938H87.9937H87.9937H87.9936H87.9936H87.9935H87.9935H87.9934H87.9934H87.9933H87.9933H87.9932H87.9932C87.7534 30.4998 83.7278 30.4781 79.9586 29.3206C78.0722 28.7413 76.3022 27.8927 75.0962 26.6656C73.9122 25.461 73.2508 23.8732 73.5878 21.7177ZM102.111 20.3155L102.111 20.3158L102.111 20.3155Z" fill="#8589EB" stroke="white"/>
<path opacity="0.15" d="M73.5885 21.7134L73.5878 21.7179C73.2508 23.8735 73.9122 25.4612 75.0962 26.6659C76.3022 27.8929 78.0722 28.7415 79.9586 29.3208C83.7278 30.4783 87.7534 30.5 87.9932 30.5H87.9932H87.9933H87.9933H87.9934H87.9934H87.9935H87.9935H87.9936H87.9936H87.9937H87.9937H87.9938H87.9938H87.9939H87.9939H87.994H87.994H87.9941H87.9941H87.9942H87.9942H87.9943H87.9943H87.9944H87.9944H87.9945H87.9945H87.9946H87.9946H87.9946H87.9947H87.9947H87.9948H87.9948H87.9949H87.9949H87.995H87.995H87.9951H87.9951H87.9952H87.9952H87.9952H87.9953H87.9953H87.9954H87.9954H87.9955H87.9955H87.9956H87.9956H87.9957H87.9957H87.9957H87.9958H87.9958H87.9959H87.9959H87.996H87.996H87.996H87.9961H87.9961H87.9962H87.9962H87.9963H87.9963H87.9963H87.9964H87.9964H87.9965H87.9965H87.9966H87.9966H87.9966H87.9967H87.9967H87.9968H87.9968H87.9969H87.9969H87.9969H87.997H87.997H87.9971H87.9971H87.9971H87.9972H87.9972H87.9973H87.9973H87.9973H87.9974H87.9974H87.9975H87.9975H87.9975H87.9976H87.9976H87.9977H87.9977H87.9977H87.9978H87.9978H87.9979H87.9979H87.9979H87.998H87.998H87.9981H87.9981H87.9981H87.9982H87.9982H87.9982H87.9983H87.9983H87.9984H87.9984H87.9984H87.9985H87.9985H87.9985H87.9986H87.9986H87.9987H87.9987H87.9987H87.9988H87.9988H87.9988H87.9989H87.9989H87.9989H87.999H87.999H87.999H87.9991H87.9991H87.9992H87.9992H87.9992H87.9993H87.9993H87.9993H87.9994H87.9994H87.9994H87.9995H87.9995H87.9995H87.9996H87.9996H87.9996H87.9997H87.9997H87.9997H87.9998H87.9998H87.9998H87.9999H87.9999H87.9999H88H88H88H88.0001H88.0001H88.0001H88.0002H88.0002H88.0002H88.0003H88.0003H88.0003H88.0004H88.0004H88.0004H88.0005H88.0005H88.0005H88.0005H88.0006H88.0006H88.0006H88.0007H88.0007H88.0007H88.0008H88.0008H88.0008H88.0009H88.0009H88.0009H88.0009H88.001H88.001H88.001H88.0011H88.0011H88.0011H88.0011H88.0012H88.0012H88.0012H88.0013H88.0013H88.0013H88.0013H88.0014H88.0014H88.0014H88.0015H88.0015H88.0015H88.0015H88.0016H88.0016H88.0016H88.0017H88.0017H88.0017H88.0017H88.0018H88.0018H88.0018H88.0018H88.0019H88.0019H88.0019H88.0019H88.002H88.002H88.002H88.002H88.0021H88.0021H88.0021H88.0021H88.0022H88.0022H88.0022H88.0022H88.0023H88.0023H88.0023H88.0023H88.0024H88.0024H88.0024H88.0024H88.0025H88.0025H88.0025H88.0025H88.0026H88.0026H88.0026H88.0026H88.0027H88.0027H88.0027H88.0027H88.0028H88.0028H88.0028H88.0028H88.0028H88.0029H88.0029H88.0029H88.0029H88.003H88.003H88.003H88.003H88.003H88.0031H88.0031H88.0031H88.0031H88.0031H88.0032H88.0032H88.0032H88.0032H88.0033H88.0033H88.0033H88.0033H88.0033H88.0034H88.0034H88.0034H88.0034H88.0034H88.0035H88.0035H88.0035H88.0035H88.0035H88.0035H88.0036H88.0036H88.0036H88.0036H88.0036H88.0037H88.0037H88.0037H88.0037H88.0037H88.0038H88.0038H88.0038H88.0038H88.0038H88.0038H88.0039H88.0039H88.0039H88.0039H88.0039H88.0039H88.004H88.004H88.004H88.004H88.004H88.004H88.0041H88.0041H88.0041H88.0041H88.0041H88.0041H88.0042H88.0042H88.0042H88.0042H88.0042H88.0042H88.0043H88.0043H88.0043H88.0043H88.0043H88.0043H88.0043H88.0044H88.0044H88.0044H88.0044H88.0044H88.0044H88.0044H88.0045H88.0045H88.0045H88.0045H88.0045H88.0045H88.0045H88.0046H88.0046H88.0046H88.0046H88.0046H88.0046H88.0046H88.0046H88.0047H88.0047H88.0047H88.0047H88.0047H88.0047H88.0047H88.0047H88.0048H88.0048H88.0048H88.0048H88.0048H88.0048H88.0048H88.0048H88.0048H88.0049H88.0049H88.0049H88.0049H88.0049H88.0049H88.0049H88.0049H88.0049H88.005H88.005H88.005H88.005H88.005H88.005H88.005H88.005H88.005H88.005H88.0051H88.0051H88.0051H88.0051H88.0051H88.0051H88.0051H88.0051H88.0051H88.0051H88.0051H88.0051H88.0052H88.0052H88.0052H88.0052H88.0052H88.0052H88.0052H88.0052H88.0052H88.0052H88.0052H88.0052H88.0053H88.0053H88.0053H88.0053H88.0053H88.0053H88.0053H88.0054H88.0054H88.0054H88.0054H88.0054H88.0054H88.0054H88.0054H88.0054H88.0054H88.0054H88.0055H88.0055H88.0055H88.0055H88.0055H88.0055H88.0055H88.0055H88.0055H88.0055C88.2514 30.5 92.4344 30.4774 96.2659 29.2502C98.1836 28.6361 99.9557 27.7377 101.114 26.4415C102.131 25.303 102.7 23.8297 102.435 21.8737C102.354 21.9277 102.273 21.9795 102.191 22.0293M73.5885 21.7134L75.5005 21.2447C75.8515 21.6823 76.2476 22.086 76.7021 22.4031C77.0272 22.6302 77.3833 22.8143 77.775 22.934C78.4803 23.1506 79.2644 23.1474 80.1325 22.8697L79.9807 22.3934L80.1331 22.8695C81.2088 22.5266 82.4115 21.7638 83.7858 20.4811M73.5885 21.7134C73.5972 21.6539 73.6069 21.594 73.6176 21.5325C73.6378 21.4185 73.6618 21.3012 73.6889 21.1802C73.7426 20.9418 73.7973 20.7041 73.853 20.465C73.8631 20.4218 73.8733 20.3788 73.8834 20.3359C74.0984 20.3178 74.3044 20.3333 74.4965 20.3899C74.7695 20.4703 75.046 20.6426 75.2993 20.9837L75.2993 20.9837M73.5885 21.7134L75.2993 20.9837M102.191 22.0293C102.191 22.0294 102.19 22.0295 102.19 22.0296L101.931 21.602L102.191 22.0291C102.191 22.0292 102.191 22.0292 102.191 22.0293ZM102.191 22.0293C102.133 22.0645 102.075 22.098 102.018 22.1298C101.752 22.2808 101.479 22.4096 101.204 22.5229L101.204 22.523C100.914 22.6426 100.618 22.7442 100.322 22.8332M100.322 22.8332L100.178 22.3546L100.322 22.8334C100.322 22.8333 100.322 22.8333 100.322 22.8332ZM100.322 22.8332C99.5002 23.0815 98.4346 23.3024 97.4037 23.2457C96.3707 23.1888 95.3042 22.8465 94.6023 21.896L94.6022 21.8959C93.7512 20.743 91.9748 19.4915 89.9237 18.9889C87.8943 18.4917 85.6531 18.7383 83.7858 20.4811M83.7858 20.4811C83.7858 20.4811 83.7858 20.4811 83.7858 20.4811L83.4456 20.1167L83.7858 20.4811ZM102.798 21.0708L102.584 21.1195C102.516 21.1957 102.435 21.2599 102.354 21.32C102.35 21.3229 102.346 21.3258 102.342 21.3287L102.887 21.5252C102.862 21.3761 102.832 21.2246 102.798 21.0708ZM102.798 21.0708C102.795 21.0601 102.793 21.0495 102.79 21.0389L102.679 20.9804M102.798 21.0708L102.584 21.1184C102.621 21.0765 102.654 21.0309 102.679 20.9804M102.679 20.9804L102.79 21.0363L102.679 20.9804ZM75.2993 20.9837L75.3009 20.9857M75.2993 20.9837L75.3009 20.9857M75.3009 20.9857C75.3643 21.0702 75.4308 21.1577 75.5004 21.2445L75.3009 20.9857Z" fill="white" stroke="white"/>
<path opacity="0.15" d="M73.5885 21.7135L73.5878 21.718C73.2508 23.8736 73.9122 25.4613 75.0962 26.666C76.3022 27.893 78.0722 28.7416 79.9586 29.3209C83.7278 30.4785 87.7534 30.5001 87.9932 30.5001H87.9932H87.9933H87.9933H87.9934H87.9934H87.9935H87.9935H87.9936H87.9936H87.9937H87.9937H87.9938H87.9938H87.9939H87.9939H87.994H87.994H87.9941H87.9941H87.9942H87.9942H87.9943H87.9943H87.9944H87.9944H87.9945H87.9945H87.9946H87.9946H87.9946H87.9947H87.9947H87.9948H87.9948H87.9949H87.9949H87.995H87.995H87.9951H87.9951H87.9952H87.9952H87.9952H87.9953H87.9953H87.9954H87.9954H87.9955H87.9955H87.9956H87.9956H87.9957H87.9957H87.9957H87.9958H87.9958H87.9959H87.9959H87.996H87.996H87.996H87.9961H87.9961H87.9962H87.9962H87.9963H87.9963H87.9963H87.9964H87.9964H87.9965H87.9965H87.9966H87.9966H87.9966H87.9967H87.9967H87.9968H87.9968H87.9969H87.9969H87.9969H87.997H87.997H87.9971H87.9971H87.9971H87.9972H87.9972H87.9973H87.9973H87.9973H87.9974H87.9974H87.9975H87.9975H87.9975H87.9976H87.9976H87.9977H87.9977H87.9977H87.9978H87.9978H87.9979H87.9979H87.9979H87.998H87.998H87.9981H87.9981H87.9981H87.9982H87.9982H87.9982H87.9983H87.9983H87.9984H87.9984H87.9984H87.9985H87.9985H87.9985H87.9986H87.9986H87.9987H87.9987H87.9987H87.9988H87.9988H87.9988H87.9989H87.9989H87.9989H87.999H87.999H87.999H87.9991H87.9991H87.9992H87.9992H87.9992H87.9993H87.9993H87.9993H87.9994H87.9994H87.9994H87.9995H87.9995H87.9995H87.9996H87.9996H87.9996H87.9997H87.9997H87.9997H87.9998H87.9998H87.9998H87.9999H87.9999H87.9999H88H88H88H88.0001H88.0001H88.0001H88.0002H88.0002H88.0002H88.0003H88.0003H88.0003H88.0004H88.0004H88.0004H88.0005H88.0005H88.0005H88.0005H88.0006H88.0006H88.0006H88.0007H88.0007H88.0007H88.0008H88.0008H88.0008H88.0009H88.0009H88.0009H88.0009H88.001H88.001H88.001H88.0011H88.0011H88.0011H88.0011H88.0012H88.0012H88.0012H88.0013H88.0013H88.0013H88.0013H88.0014H88.0014H88.0014H88.0015H88.0015H88.0015H88.0015H88.0016H88.0016H88.0016H88.0017H88.0017H88.0017H88.0017H88.0018H88.0018H88.0018H88.0018H88.0019H88.0019H88.0019H88.0019H88.002H88.002H88.002H88.002H88.0021H88.0021H88.0021H88.0021H88.0022H88.0022H88.0022H88.0022H88.0023H88.0023H88.0023H88.0023H88.0024H88.0024H88.0024H88.0024H88.0025H88.0025H88.0025H88.0025H88.0026H88.0026H88.0026H88.0026H88.0027H88.0027H88.0027H88.0027H88.0028H88.0028H88.0028H88.0028H88.0028H88.0029H88.0029H88.0029H88.0029H88.003H88.003H88.003H88.003H88.003H88.0031H88.0031H88.0031H88.0031H88.0031H88.0032H88.0032H88.0032H88.0032H88.0033H88.0033H88.0033H88.0033H88.0033H88.0034H88.0034H88.0034H88.0034H88.0034H88.0035H88.0035H88.0035H88.0035H88.0035H88.0035H88.0036H88.0036H88.0036H88.0036H88.0036H88.0037H88.0037H88.0037H88.0037H88.0037H88.0038H88.0038H88.0038H88.0038H88.0038H88.0038H88.0039H88.0039H88.0039H88.0039H88.0039H88.0039H88.004H88.004H88.004H88.004H88.004H88.004H88.0041H88.0041H88.0041H88.0041H88.0041H88.0041H88.0042H88.0042H88.0042H88.0042H88.0042H88.0042H88.0043H88.0043H88.0043H88.0043H88.0043H88.0043H88.0043H88.0044H88.0044H88.0044H88.0044H88.0044H88.0044H88.0044H88.0045H88.0045H88.0045H88.0045H88.0045H88.0045H88.0045H88.0046H88.0046H88.0046H88.0046H88.0046H88.0046H88.0046H88.0046H88.0047H88.0047H88.0047H88.0047H88.0047H88.0047H88.0047H88.0047H88.0048H88.0048H88.0048H88.0048H88.0048H88.0048H88.0048H88.0048H88.0048H88.0049H88.0049H88.0049H88.0049H88.0049H88.0049H88.0049H88.0049H88.0049H88.005H88.005H88.005H88.005H88.005H88.005H88.005H88.005H88.005H88.005H88.0051H88.0051H88.0051H88.0051H88.0051H88.0051H88.0051H88.0051H88.0051H88.0051H88.0051H88.0051H88.0052H88.0052H88.0052H88.0052H88.0052H88.0052H88.0052H88.0052H88.0052H88.0052H88.0052H88.0052H88.0053H88.0053H88.0053H88.0053H88.0053H88.0053H88.0053H88.0054H88.0054H88.0054H88.0054H88.0054H88.0054H88.0054H88.0054H88.0054H88.0054H88.0054H88.0055H88.0055H88.0055H88.0055H88.0055H88.0055H88.0055H88.0055H88.0055H88.0055C88.2514 30.5001 92.4344 30.4775 96.2659 29.2504C98.1836 28.6362 99.9557 27.7378 101.114 26.4417C102.174 25.2544 102.748 23.7033 102.396 21.6204C102.333 21.7288 102.269 21.8388 102.203 21.95C102.063 22.1848 101.917 22.427 101.762 22.6722C100.787 24.2256 99.5298 25.9315 98.1644 27.0035C97.4798 27.541 96.7342 27.9463 95.9542 28.067C95.1545 28.1908 94.3573 28.0085 93.6156 27.4409C93.2835 27.1882 92.9692 26.862 92.672 26.4641M73.5885 21.7135L101.339 22.4054C99.4031 25.4894 96.4593 28.9884 93.9188 27.0433C93.6303 26.8239 93.3475 26.5329 93.0723 26.1646C92.9992 26.0673 92.9252 25.9699 92.8502 25.8736M73.5885 21.7135C73.5972 21.654 73.6069 21.5941 73.6176 21.5326M73.5885 21.7135L73.6176 21.5326M92.672 26.4641C92.6719 26.464 92.6718 26.4639 92.6717 26.4638L93.0722 26.1646L92.6725 26.4648C92.6723 26.4646 92.6721 26.4644 92.672 26.4641ZM92.672 26.4641C92.6004 26.3688 92.5285 26.2743 92.4561 26.1813M92.4561 26.1813L92.8502 25.8736M92.4561 26.1813C91.6763 25.1824 90.4936 24.0161 89.2087 23.3294C87.9277 22.6448 86.6463 22.4806 85.5225 23.2651L85.5224 23.2652C85.3434 23.3901 85.1703 23.5335 84.9867 23.6917C84.942 23.7303 84.896 23.7703 84.8491 23.8111C84.7097 23.9323 84.562 24.0609 84.4127 24.1814M92.4561 26.1813C92.4559 26.1811 92.4558 26.1809 92.4557 26.1808L92.8502 25.8736M92.8502 25.8736C91.2388 23.8093 87.9173 20.9835 85.2363 22.8551L76.5163 22.1576M102.242 20.8808C102.245 20.8946 102.249 20.9086 102.252 20.9235L102.252 20.9236L102.254 20.9359C102.267 20.9864 102.277 21.0334 102.288 21.0843C102.295 21.1146 102.302 21.1461 102.31 21.1806C102.31 21.1804 102.31 21.1801 102.31 21.1799L102.242 20.8808ZM102.242 20.8808C102.273 20.8254 102.304 20.7705 102.334 20.7162L102.417 20.6973L102.417 20.6973L102.698 20.633M102.242 20.8808L102.756 20.8843C102.756 20.8841 102.756 20.884 102.756 20.8838C102.751 20.8624 102.746 20.841 102.741 20.8197C102.732 20.7794 102.723 20.7396 102.714 20.6997C102.708 20.6775 102.703 20.6553 102.698 20.633M73.6176 21.5326C73.6378 21.4186 73.6618 21.3014 73.6889 21.1804C73.7426 20.9419 73.7972 20.7042 73.853 20.4651C73.889 20.3121 73.9246 20.1612 73.9611 20.0116L73.9612 20.011C73.9954 19.8699 74.0293 19.7301 74.0641 19.5895L73.6176 21.5326ZM74.1624 19.1973C74.1293 19.3263 74.097 19.4567 74.0641 19.5893L74.1624 19.1973ZM74.1624 19.1973L74.1632 19.1945C74.165 19.1883 74.1671 19.1805 74.1692 19.1714M74.1624 19.1973L74.1692 19.1714M74.1692 19.1714C74.1974 19.0606 74.2259 18.9499 74.2549 18.8394C74.4364 18.921 74.6183 19.0318 74.7993 19.1785L74.1692 19.1714ZM76.5163 22.1576C76.5043 22.1239 76.4924 22.0881 76.4831 22.0597C76.4799 22.0501 76.477 22.0413 76.4745 22.0338L76.473 22.0293L76.473 22.0293C76.4031 21.8137 76.3297 21.6097 76.2545 21.4185L76.2543 21.4177C75.8079 20.2758 75.2985 19.5833 74.7994 19.1786L76.5163 22.1576ZM76.5163 22.1576C76.9413 23.4112 77.6928 24.8783 79.0713 25.5001C79.2097 25.5629 79.3531 25.6155 79.4993 25.6584L79.4996 25.6585C80.4 25.9219 81.3317 25.7886 82.169 25.4833C83.0078 25.1774 83.7872 24.6868 84.4127 24.1814M84.4127 24.1814C84.4127 24.1814 84.4126 24.1814 84.4126 24.1815L84.0985 23.7925L84.4127 24.1814ZM102.698 20.633L102.416 20.6971L102.416 20.6971L102.334 20.7158L102.602 20.2219M102.698 20.633C102.672 20.5179 102.645 20.4029 102.618 20.2878C102.618 20.2874 102.618 20.2869 102.617 20.2864C102.612 20.2655 102.608 20.2445 102.603 20.2236L102.602 20.2219M102.602 20.2219C102.598 20.2294 102.594 20.2368 102.59 20.2442C102.586 20.2517 102.582 20.2591 102.578 20.2666L102.602 20.2219ZM79.2775 25.0445C79.3933 25.0972 79.5148 25.1418 79.64 25.1786L79.2775 25.0445Z" fill="white" stroke="white"/>
<path opacity="0.15" d="M76.4709 21.6691L76.4697 21.6685C76.2514 21.5423 76.0276 21.4649 75.8017 21.4238C75.025 21.2846 74.2045 21.5848 73.5551 21.9495C73.2993 23.9878 73.955 25.5047 75.0962 26.6659C76.3022 27.8929 78.0722 28.7415 79.9586 29.3208C83.7278 30.4783 87.7534 30.5 87.9932 30.5H87.9932H87.9933H87.9933H87.9934H87.9934H87.9935H87.9935H87.9936H87.9936H87.9937H87.9937H87.9938H87.9938H87.9939H87.9939H87.994H87.994H87.9941H87.9941H87.9942H87.9942H87.9943H87.9943H87.9944H87.9944H87.9945H87.9945H87.9946H87.9946H87.9946H87.9947H87.9947H87.9948H87.9948H87.9949H87.9949H87.995H87.995H87.9951H87.9951H87.9952H87.9952H87.9952H87.9953H87.9953H87.9954H87.9954H87.9955H87.9955H87.9956H87.9956H87.9957H87.9957H87.9957H87.9958H87.9958H87.9959H87.9959H87.996H87.996H87.996H87.9961H87.9961H87.9962H87.9962H87.9963H87.9963H87.9963H87.9964H87.9964H87.9965H87.9965H87.9966H87.9966H87.9966H87.9967H87.9967H87.9968H87.9968H87.9969H87.9969H87.9969H87.997H87.997H87.9971H87.9971H87.9971H87.9972H87.9972H87.9973H87.9973H87.9973H87.9974H87.9974H87.9975H87.9975H87.9975H87.9976H87.9976H87.9977H87.9977H87.9977H87.9978H87.9978H87.9979H87.9979H87.9979H87.998H87.998H87.9981H87.9981H87.9981H87.9982H87.9982H87.9982H87.9983H87.9983H87.9984H87.9984H87.9984H87.9985H87.9985H87.9985H87.9986H87.9986H87.9987H87.9987H87.9987H87.9988H87.9988H87.9988H87.9989H87.9989H87.9989H87.999H87.999H87.999H87.9991H87.9991H87.9992H87.9992H87.9992H87.9993H87.9993H87.9993H87.9994H87.9994H87.9994H87.9995H87.9995H87.9995H87.9996H87.9996H87.9996H87.9997H87.9997H87.9997H87.9998H87.9998H87.9998H87.9999H87.9999H87.9999H88H88H88H88.0001H88.0001H88.0001H88.0002H88.0002H88.0002H88.0003H88.0003H88.0003H88.0004H88.0004H88.0004H88.0005H88.0005H88.0005H88.0005H88.0006H88.0006H88.0006H88.0007H88.0007H88.0007H88.0008H88.0008H88.0008H88.0009H88.0009H88.0009H88.0009H88.001H88.001H88.001H88.0011H88.0011H88.0011H88.0011H88.0012H88.0012H88.0012H88.0013H88.0013H88.0013H88.0013H88.0014H88.0014H88.0014H88.0015H88.0015H88.0015H88.0015H88.0016H88.0016H88.0016H88.0017H88.0017H88.0017H88.0017H88.0018H88.0018H88.0018H88.0018H88.0019H88.0019H88.0019H88.0019H88.002H88.002H88.002H88.002H88.0021H88.0021H88.0021H88.0021H88.0022H88.0022H88.0022H88.0022H88.0023H88.0023H88.0023H88.0023H88.0024H88.0024H88.0024H88.0024H88.0025H88.0025H88.0025H88.0025H88.0026H88.0026H88.0026H88.0026H88.0027H88.0027H88.0027H88.0027H88.0028H88.0028H88.0028H88.0028H88.0028H88.0029H88.0029H88.0029H88.0029H88.003H88.003H88.003H88.003H88.003H88.0031H88.0031H88.0031H88.0031H88.0031H88.0032H88.0032H88.0032H88.0032H88.0033H88.0033H88.0033H88.0033H88.0033H88.0034H88.0034H88.0034H88.0034H88.0034H88.0035H88.0035H88.0035H88.0035H88.0035H88.0035H88.0036H88.0036H88.0036H88.0036H88.0036H88.0037H88.0037H88.0037H88.0037H88.0037H88.0038H88.0038H88.0038H88.0038H88.0038H88.0038H88.0039H88.0039H88.0039H88.0039H88.0039H88.0039H88.004H88.004H88.004H88.004H88.004H88.004H88.0041H88.0041H88.0041H88.0041H88.0041H88.0041H88.0042H88.0042H88.0042H88.0042H88.0042H88.0042H88.0043H88.0043H88.0043H88.0043H88.0043H88.0043H88.0043H88.0044H88.0044H88.0044H88.0044H88.0044H88.0044H88.0044H88.0045H88.0045H88.0045H88.0045H88.0045H88.0045H88.0045H88.0046H88.0046H88.0046H88.0046H88.0046H88.0046H88.0046H88.0046H88.0047H88.0047H88.0047H88.0047H88.0047H88.0047H88.0047H88.0047H88.0048H88.0048H88.0048H88.0048H88.0048H88.0048H88.0048H88.0048H88.0048H88.0049H88.0049H88.0049H88.0049H88.0049H88.0049H88.0049H88.0049H88.0049H88.005H88.005H88.005H88.005H88.005H88.005H88.005H88.005H88.005H88.005H88.0051H88.0051H88.0051H88.0051H88.0051H88.0051H88.0051H88.0051H88.0051H88.0051H88.0051H88.0051H88.0052H88.0052H88.0052H88.0052H88.0052H88.0052H88.0052H88.0052H88.0052H88.0052H88.0052H88.0052H88.0053H88.0053H88.0053H88.0053H88.0053H88.0053H88.0053H88.0054H88.0054H88.0054H88.0054H88.0054H88.0054H88.0054H88.0054H88.0054H88.0054H88.0054H88.0055H88.0055H88.0055H88.0055H88.0055H88.0055H88.0055H88.0055H88.0055H88.0055C88.2514 30.5 92.4344 30.4773 96.2659 29.2502C98.1836 28.6361 99.9557 27.7377 101.114 26.4415C102.242 25.1787 102.819 23.5041 102.318 21.2158C102.181 21.2862 102.052 21.3952 101.939 21.5184C101.864 21.6002 101.805 21.6783 101.766 21.7354C101.746 21.7636 101.732 21.786 101.723 21.8001L101.719 21.8064L101.71 21.8251C101.697 21.85 101.679 21.8856 101.655 21.9308C101.608 22.0213 101.539 22.1505 101.447 22.3096C101.236 22.6771 100.908 23.204 100.467 23.7833M76.4709 21.6691L100.069 23.4806M76.4709 21.6691C76.8139 21.8662 77.1667 22.1934 77.4978 22.7215L77.4979 22.7217M76.4709 21.6691L77.4979 22.7217M100.467 23.7833L100.069 23.4806M100.467 23.7833C100.467 23.7832 100.467 23.7832 100.467 23.7832L100.069 23.4806M100.467 23.7833C99.2327 25.4072 97.0094 27.5765 93.9136 27.5431M100.069 23.4806C98.8593 25.0722 96.7677 27.074 93.9188 27.0432M93.9136 27.5431C93.9137 27.5431 93.9137 27.5431 93.9138 27.5431L93.9188 27.0432M93.9136 27.5431C93.9135 27.5431 93.9135 27.5431 93.9134 27.5431L93.9188 27.0432M93.9136 27.5431C93.3748 27.5378 92.814 27.4656 92.2321 27.3134L93.9188 27.0432M77.4979 22.7217C77.6865 23.0221 77.8679 23.3878 78.0355 23.8293C78.2418 24.3763 78.5229 24.9058 78.8883 25.3583C79.4733 26.0837 80.2849 26.62 81.3317 26.6805L81.3318 26.6805M77.4979 22.7217L81.3318 26.6805M81.3318 26.6805C82.9191 26.7719 84.3225 25.9005 85.4287 25.1121L81.3318 26.6805ZM102.698 20.6329L102.437 20.6924L102.436 20.6926L102.374 20.7067L102.371 20.7072L102.211 20.7438C102.217 20.7734 102.223 20.7983 102.228 20.8211C102.237 20.8567 102.244 20.8874 102.252 20.9234L102.252 20.9235L102.254 20.9358C102.267 20.9863 102.277 21.0333 102.288 21.0842C102.295 21.1145 102.302 21.146 102.31 21.1805C102.31 21.1803 102.31 21.18 102.31 21.1798L102.482 21.1414L102.51 21.135L102.513 21.1344L102.523 21.1322L102.698 20.6329ZM85.4288 25.112C85.9617 24.7324 86.4467 24.6335 86.9173 24.6832C87.4091 24.7351 87.9211 24.9534 88.4858 25.2775C88.8304 25.4753 89.1553 25.6874 89.4957 25.9097C89.7335 26.065 89.9788 26.2252 90.2437 26.3888C90.855 26.7666 91.5194 27.1271 92.2321 27.3134L85.4288 25.112Z" fill="white" stroke="white"/>
<path opacity="0.15" d="M73.5885 21.7135L73.5878 21.718C73.2508 23.8735 73.9122 25.4612 75.0962 26.6659C76.3022 27.893 78.0722 28.7416 79.9586 29.3209C83.7278 30.4784 87.7534 30.5 87.9932 30.5H87.9932H87.9933H87.9933H87.9934H87.9934H87.9935H87.9935H87.9936H87.9936H87.9937H87.9937H87.9938H87.9938H87.9939H87.9939H87.994H87.994H87.9941H87.9941H87.9942H87.9942H87.9943H87.9943H87.9944H87.9944H87.9945H87.9945H87.9946H87.9946H87.9946H87.9947H87.9947H87.9948H87.9948H87.9949H87.9949H87.995H87.995H87.9951H87.9951H87.9952H87.9952H87.9952H87.9953H87.9953H87.9954H87.9954H87.9955H87.9955H87.9956H87.9956H87.9957H87.9957H87.9957H87.9958H87.9958H87.9959H87.9959H87.996H87.996H87.996H87.9961H87.9961H87.9962H87.9962H87.9963H87.9963H87.9963H87.9964H87.9964H87.9965H87.9965H87.9966H87.9966H87.9966H87.9967H87.9967H87.9968H87.9968H87.9969H87.9969H87.9969H87.997H87.997H87.9971H87.9971H87.9971H87.9972H87.9972H87.9973H87.9973H87.9973H87.9974H87.9974H87.9975H87.9975H87.9975H87.9976H87.9976H87.9977H87.9977H87.9977H87.9978H87.9978H87.9979H87.9979H87.9979H87.998H87.998H87.9981H87.9981H87.9981H87.9982H87.9982H87.9982H87.9983H87.9983H87.9984H87.9984H87.9984H87.9985H87.9985H87.9985H87.9986H87.9986H87.9987H87.9987H87.9987H87.9988H87.9988H87.9988H87.9989H87.9989H87.9989H87.999H87.999H87.999H87.9991H87.9991H87.9992H87.9992H87.9992H87.9993H87.9993H87.9993H87.9994H87.9994H87.9994H87.9995H87.9995H87.9995H87.9996H87.9996H87.9996H87.9997H87.9997H87.9997H87.9998H87.9998H87.9998H87.9999H87.9999H87.9999H88H88H88H88.0001H88.0001H88.0001H88.0002H88.0002H88.0002H88.0003H88.0003H88.0003H88.0004H88.0004H88.0004H88.0005H88.0005H88.0005H88.0005H88.0006H88.0006H88.0006H88.0007H88.0007H88.0007H88.0008H88.0008H88.0008H88.0009H88.0009H88.0009H88.0009H88.001H88.001H88.001H88.0011H88.0011H88.0011H88.0011H88.0012H88.0012H88.0012H88.0013H88.0013H88.0013H88.0013H88.0014H88.0014H88.0014H88.0015H88.0015H88.0015H88.0015H88.0016H88.0016H88.0016H88.0017H88.0017H88.0017H88.0017H88.0018H88.0018H88.0018H88.0018H88.0019H88.0019H88.0019H88.0019H88.002H88.002H88.002H88.002H88.0021H88.0021H88.0021H88.0021H88.0022H88.0022H88.0022H88.0022H88.0023H88.0023H88.0023H88.0023H88.0024H88.0024H88.0024H88.0024H88.0025H88.0025H88.0025H88.0025H88.0026H88.0026H88.0026H88.0026H88.0027H88.0027H88.0027H88.0027H88.0028H88.0028H88.0028H88.0028H88.0028H88.0029H88.0029H88.0029H88.0029H88.003H88.003H88.003H88.003H88.003H88.0031H88.0031H88.0031H88.0031H88.0031H88.0032H88.0032H88.0032H88.0032H88.0033H88.0033H88.0033H88.0033H88.0033H88.0034H88.0034H88.0034H88.0034H88.0034H88.0035H88.0035H88.0035H88.0035H88.0035H88.0035H88.0036H88.0036H88.0036H88.0036H88.0036H88.0037H88.0037H88.0037H88.0037H88.0037H88.0038H88.0038H88.0038H88.0038H88.0038H88.0038H88.0039H88.0039H88.0039H88.0039H88.0039H88.0039H88.004H88.004H88.004H88.004H88.004H88.004H88.0041H88.0041H88.0041H88.0041H88.0041H88.0041H88.0042H88.0042H88.0042H88.0042H88.0042H88.0042H88.0043H88.0043H88.0043H88.0043H88.0043H88.0043H88.0043H88.0044H88.0044H88.0044H88.0044H88.0044H88.0044H88.0044H88.0045H88.0045H88.0045H88.0045H88.0045H88.0045H88.0045H88.0046H88.0046H88.0046H88.0046H88.0046H88.0046H88.0046H88.0046H88.0047H88.0047H88.0047H88.0047H88.0047H88.0047H88.0047H88.0047H88.0048H88.0048H88.0048H88.0048H88.0048H88.0048H88.0048H88.0048H88.0048H88.0049H88.0049H88.0049H88.0049H88.0049H88.0049H88.0049H88.0049H88.0049H88.005H88.005H88.005H88.005H88.005H88.005H88.005H88.005H88.005H88.005H88.0051H88.0051H88.0051H88.0051H88.0051H88.0051H88.0051H88.0051H88.0051H88.0051H88.0051H88.0051H88.0052H88.0052H88.0052H88.0052H88.0052H88.0052H88.0052H88.0052H88.0052H88.0052H88.0052H88.0052H88.0053H88.0053H88.0053H88.0053H88.0053H88.0053H88.0053H88.0054H88.0054H88.0054H88.0054H88.0054H88.0054H88.0054H88.0054H88.0054H88.0054H88.0054H88.0055H88.0055H88.0055H88.0055H88.0055H88.0055H88.0055H88.0055H88.0055H88.0055C88.2514 30.5 92.4344 30.4774 96.2659 29.2503C98.1836 28.6361 99.9557 27.7378 101.114 26.4416C102.15 25.2816 102.722 23.7742 102.419 21.7628C102.398 21.7971 102.377 21.8317 102.356 21.8665L102.355 21.8678C102.181 22.1453 101.97 22.4419 101.717 22.733C101.348 23.1592 100.889 23.5759 100.324 23.9107C98.9937 24.7002 97.1615 24.9844 94.7358 24.0176C94.044 23.7419 93.4343 23.2762 92.8598 22.8241C92.8103 22.7851 92.7609 22.7462 92.7117 22.7073C92.1731 22.2822 91.6467 21.8667 91.0397 21.5334C90.3883 21.1758 89.6522 20.919 88.7459 20.882C87.8356 20.8449 86.7248 21.0285 85.326 21.594C85.0428 21.7085 84.7593 21.8568 84.4598 22.0229C84.3765 22.0691 84.2909 22.1173 84.2036 22.1664C83.9862 22.2888 83.7586 22.4168 83.5333 22.5329C82.8951 22.8614 82.1653 23.1541 81.3318 23.106C80.81 23.0762 80.3025 23.0122 79.8368 22.8722L79.9807 22.3934M73.5885 21.7135L77.8457 21.0493C78.232 22.0702 78.9525 22.6077 79.8374 22.8724L79.9807 22.3934M73.5885 21.7135C73.5972 21.654 73.6069 21.594 73.6176 21.5326M73.5885 21.7135L73.6176 21.5326M79.9807 22.3934C79.2206 22.166 78.636 21.7252 78.3133 20.8722L93.0177 22.3118C91.3158 20.9678 89.3603 19.4237 85.1386 21.1304C84.7342 21.2939 84.3422 21.5146 83.9496 21.7356C83.1286 22.1977 82.3049 22.6613 81.3606 22.6069C80.8576 22.5781 80.3935 22.5175 79.9807 22.3934ZM73.6176 21.5326C73.6378 21.4186 73.6618 21.3013 73.6889 21.1804C73.7426 20.9419 73.7972 20.7042 73.853 20.4651C73.889 20.3121 73.9246 20.1612 73.9611 20.0116L73.9612 20.011C73.9954 19.8699 74.0293 19.7301 74.0641 19.5895L73.6176 21.5326ZM74.0965 19.4589C74.0857 19.5021 74.0749 19.5456 74.0641 19.5893L74.0965 19.4589ZM74.0965 19.4589C74.448 19.3693 74.8004 19.3085 75.1422 19.2893L75.1426 19.2893C75.732 19.2558 76.268 19.3467 76.7164 19.6037C77.1577 19.8566 77.5607 20.2967 77.8457 21.0492L74.0965 19.4589Z" fill="white" stroke="white"/>
</g>
<path d="M114.04 21.1667V9.80666H116.28L119.864 16.3667L123.464 9.80666H125.624V21.1667H123.32V13.9827L120.68 18.7987H118.984L116.344 13.9827V21.1667H114.04ZM135.456 21.4067C134.827 21.4067 134.246 21.2947 133.712 21.0707C133.179 20.8467 132.715 20.5373 132.32 20.1427C131.926 19.7373 131.616 19.2627 131.392 18.7187C131.179 18.1747 131.072 17.5827 131.072 16.9427C131.072 16.3027 131.184 15.716 131.408 15.1827C131.632 14.6387 131.942 14.164 132.336 13.7587C132.742 13.3533 133.211 13.0387 133.744 12.8147C134.288 12.5907 134.88 12.4787 135.52 12.4787C136.15 12.4787 136.731 12.5907 137.264 12.8147C137.798 13.0387 138.262 13.3533 138.656 13.7587C139.051 14.1533 139.355 14.6227 139.568 15.1667C139.792 15.7 139.904 16.2867 139.904 16.9267C139.904 17.5667 139.792 18.1587 139.568 18.7027C139.344 19.2467 139.03 19.7213 138.624 20.1267C138.23 20.532 137.76 20.8467 137.216 21.0707C136.683 21.2947 136.096 21.4067 135.456 21.4067ZM135.488 19.3907C135.894 19.3907 136.256 19.284 136.576 19.0707C136.896 18.8573 137.147 18.5693 137.328 18.2067C137.52 17.8333 137.616 17.412 137.616 16.9427C137.616 16.4733 137.52 16.0573 137.328 15.6947C137.147 15.3213 136.896 15.028 136.576 14.8147C136.256 14.6013 135.894 14.4947 135.488 14.4947C135.083 14.4947 134.72 14.6013 134.4 14.8147C134.08 15.028 133.824 15.3213 133.632 15.6947C133.451 16.0573 133.36 16.4733 133.36 16.9427C133.36 17.412 133.451 17.8333 133.632 18.2067C133.824 18.5693 134.08 18.8573 134.4 19.0707C134.72 19.284 135.083 19.3907 135.488 19.3907ZM149.359 21.4067C148.729 21.4067 148.148 21.2947 147.615 21.0707C147.081 20.8467 146.617 20.5373 146.223 20.1427C145.828 19.7373 145.519 19.2627 145.295 18.7187C145.081 18.1747 144.975 17.5827 144.975 16.9427C144.975 16.3027 145.087 15.716 145.311 15.1827C145.535 14.6387 145.844 14.164 146.239 13.7587C146.644 13.3533 147.113 13.0387 147.647 12.8147C148.191 12.5907 148.783 12.4787 149.423 12.4787C150.052 12.4787 150.633 12.5907 151.167 12.8147C151.7 13.0387 152.164 13.3533 152.559 13.7587C152.953 14.1533 153.257 14.6227 153.471 15.1667C153.695 15.7 153.807 16.2867 153.807 16.9267C153.807 17.5667 153.695 18.1587 153.471 18.7027C153.247 19.2467 152.932 19.7213 152.527 20.1267C152.132 20.532 151.663 20.8467 151.119 21.0707C150.585 21.2947 149.999 21.4067 149.359 21.4067ZM149.391 19.3907C149.796 19.3907 150.159 19.284 150.479 19.0707C150.799 18.8573 151.049 18.5693 151.231 18.2067C151.423 17.8333 151.519 17.412 151.519 16.9427C151.519 16.4733 151.423 16.0573 151.231 15.6947C151.049 15.3213 150.799 15.028 150.479 14.8147C150.159 14.6013 149.796 14.4947 149.391 14.4947C148.985 14.4947 148.623 14.6013 148.303 14.8147C147.983 15.028 147.727 15.3213 147.535 15.6947C147.353 16.0573 147.263 16.4733 147.263 16.9427C147.263 17.412 147.353 17.8333 147.535 18.2067C147.727 18.5693 147.983 18.8573 148.303 19.0707C148.623 19.284 148.985 19.3907 149.391 19.3907ZM159.119 21.1667V12.7187H161.183L161.247 13.8067C161.492 13.4013 161.828 13.0813 162.255 12.8467C162.692 12.6013 163.188 12.4787 163.743 12.4787C164.362 12.4787 164.9 12.628 165.359 12.9267C165.828 13.2147 166.191 13.6307 166.447 14.1747C166.703 14.7187 166.831 15.3587 166.831 16.0947V21.1667H164.591V16.3827C164.591 15.796 164.458 15.3373 164.191 15.0067C163.924 14.6653 163.556 14.4947 163.087 14.4947C162.746 14.4947 162.447 14.5747 162.191 14.7347C161.935 14.884 161.732 15.0973 161.583 15.3747C161.434 15.652 161.359 15.9667 161.359 16.3187V21.1667H159.119Z" fill="white"/>
<path d="M4.544 21.4067C3.86133 21.4067 3.232 21.2893 2.656 21.0547C2.09067 20.8093 1.60533 20.468 1.2 20.0307C0.805333 19.5827 0.533333 19.0493 0.384 18.4307L2.608 17.9507C2.74667 18.388 2.98667 18.7293 3.328 18.9747C3.68 19.22 4.096 19.3427 4.576 19.3427C4.91733 19.3427 5.216 19.284 5.472 19.1667C5.73867 19.0387 5.94133 18.868 6.08 18.6547C6.22933 18.4413 6.304 18.196 6.304 17.9187C6.304 17.5667 6.17067 17.284 5.904 17.0707C5.63733 16.8467 5.20533 16.6653 4.608 16.5267L4.096 16.4147C2.92267 16.1587 2.05867 15.748 1.504 15.1827C0.949333 14.6067 0.672 13.908 0.672 13.0867C0.672 12.5747 0.773333 12.1053 0.976 11.6787C1.17867 11.252 1.456 10.884 1.808 10.5747C2.17067 10.2547 2.592 10.0093 3.072 9.83866C3.552 9.65732 4.06933 9.56666 4.624 9.56666C5.25333 9.56666 5.84 9.68399 6.384 9.91866C6.928 10.1533 7.38667 10.4893 7.76 10.9267C8.13333 11.364 8.384 11.8813 8.512 12.4787L6.32 12.9587C6.192 12.532 5.968 12.2067 5.648 11.9827C5.33867 11.748 4.976 11.6307 4.56 11.6307C4.272 11.6307 4.01067 11.6893 3.776 11.8067C3.552 11.9133 3.37067 12.068 3.232 12.2707C3.104 12.4627 3.04 12.6813 3.04 12.9267C3.04 13.3 3.184 13.588 3.472 13.7907C3.76 13.9827 4.18667 14.1427 4.752 14.2707L5.264 14.3827C6.42667 14.6387 7.28533 15.044 7.84 15.5987C8.40533 16.1533 8.688 16.8627 8.688 17.7267C8.688 18.2707 8.58133 18.7667 8.368 19.2147C8.16533 19.6627 7.87733 20.052 7.504 20.3827C7.13067 20.7133 6.69333 20.9693 6.192 21.1507C5.69067 21.3213 5.14133 21.4067 4.544 21.4067ZM16.3079 10.4307C16.3079 10.676 16.2492 10.8947 16.1319 11.0867C16.0252 11.2787 15.8705 11.4333 15.6679 11.5507C15.4759 11.6573 15.2625 11.7107 15.0279 11.7107C14.7932 11.7107 14.5745 11.6573 14.3719 11.5507C14.1799 11.4333 14.0252 11.2787 13.9079 11.0867C13.8012 10.8947 13.7479 10.676 13.7479 10.4307C13.7479 10.1853 13.8012 9.96666 13.9079 9.77466C14.0252 9.58266 14.1799 9.43332 14.3719 9.32666C14.5745 9.20932 14.7932 9.15066 15.0279 9.15066C15.2625 9.15066 15.4759 9.20932 15.6679 9.32666C15.8705 9.43332 16.0252 9.58266 16.1319 9.77466C16.2492 9.96666 16.3079 10.1853 16.3079 10.4307ZM13.9079 21.1667V12.7187H16.1479V21.1667H13.9079ZM21.7791 21.1667V9.23066H24.0191V21.1667H21.7791ZM33.6504 21.4067C33.021 21.4067 32.4397 21.3 31.9064 21.0867C31.3837 20.8627 30.9304 20.5533 30.5464 20.1587C30.1624 19.7533 29.8637 19.2787 29.6504 18.7347C29.437 18.18 29.3304 17.5773 29.3304 16.9267C29.3304 16.2973 29.437 15.7107 29.6504 15.1667C29.8637 14.6227 30.157 14.1533 30.5304 13.7587C30.9144 13.3533 31.3624 13.0387 31.8744 12.8147C32.3864 12.5907 32.941 12.4787 33.5384 12.4787C34.157 12.4787 34.717 12.5853 35.2184 12.7987C35.7304 13.012 36.1677 13.316 36.5304 13.7107C36.893 14.1053 37.1704 14.5747 37.3624 15.1187C37.565 15.6627 37.6664 16.2707 37.6664 16.9427V17.5027H31.6024C31.6984 18.132 31.9277 18.628 32.2904 18.9907C32.653 19.3427 33.1117 19.5187 33.6664 19.5187C34.0504 19.5187 34.397 19.428 34.7064 19.2467C35.0264 19.0653 35.2877 18.804 35.4904 18.4627L37.4904 19.1027C37.2984 19.5827 37.0104 19.9933 36.6264 20.3347C36.2424 20.676 35.7944 20.9427 35.2824 21.1347C34.7704 21.316 34.2264 21.4067 33.6504 21.4067ZM33.5384 14.2067C33.0477 14.2067 32.6317 14.3667 32.2904 14.6867C31.9597 15.0067 31.741 15.444 31.6344 15.9987H35.3624C35.277 15.444 35.069 15.0067 34.7384 14.6867C34.4184 14.3667 34.0184 14.2067 33.5384 14.2067ZM42.8966 21.1667V12.7187H44.9606L45.0246 13.8067C45.27 13.4013 45.606 13.0813 46.0326 12.8467C46.47 12.6013 46.966 12.4787 47.5206 12.4787C48.1393 12.4787 48.678 12.628 49.1366 12.9267C49.606 13.2147 49.9686 13.6307 50.2246 14.1747C50.4806 14.7187 50.6086 15.3587 50.6086 16.0947V21.1667H48.3686V16.3827C48.3686 15.796 48.2353 15.3373 47.9686 15.0067C47.702 14.6653 47.334 14.4947 46.8646 14.4947C46.5233 14.4947 46.2246 14.5747 45.9686 14.7347C45.7126 14.884 45.51 15.0973 45.3606 15.3747C45.2113 15.652 45.1366 15.9667 45.1366 16.3187V21.1667H42.8966ZM59.6663 21.4067C59.0796 21.4067 58.5729 21.2947 58.1463 21.0707C57.7303 20.836 57.4049 20.5 57.1703 20.0627C56.9463 19.6253 56.8343 19.092 56.8343 18.4627V14.5267H55.3943V12.7187H56.8343V9.83866H59.0743V12.7187H61.3783V14.5267H59.0743V18.1907C59.0743 18.596 59.1596 18.9107 59.3303 19.1347C59.5009 19.348 59.7623 19.4547 60.1143 19.4547C60.2956 19.4547 60.4876 19.428 60.6903 19.3747C60.9036 19.3213 61.1063 19.252 61.2983 19.1667L61.6983 20.8467C61.4209 21.0173 61.1116 21.1507 60.7703 21.2467C60.4289 21.3533 60.0609 21.4067 59.6663 21.4067Z" fill="white"/>
</g>

</svg>
