<svg width="423" height="519" viewBox="0 0 423 519" fill="none" xmlns="http://www.w3.org/2000/svg">
<circle cx="220" cy="273" r="246" fill="#9AA2FD"/>
<circle cx="220" cy="273" r="246" fill="#949DFF"/>
<circle cx="221" cy="271" r="211" fill="#9AA2FD"/>
<circle cx="221" cy="271" r="211" fill="#99A1FF"/>
<path d="M402 267.767C402 365.522 322.754 444.767 225 444.767C127.246 444.767 48 365.522 48 267.767C48 170.013 127.246 90.7672 225 90.7672C322.754 90.7672 402 170.013 402 267.767Z" fill="#9AA2FD"/>
<path d="M402 267.767C402 365.522 322.754 444.767 225 444.767C127.246 444.767 48 365.522 48 267.767C48 170.013 127.246 90.7672 225 90.7672C322.754 90.7672 402 170.013 402 267.767Z" fill="#9EA6FF"/>
<path d="M335.4 78C333.829 69.7727 325.145 65.5733 321 64.5021C330.949 61.931 335.618 69.8584 336.709 74.1434C347.705 67.973 354.818 72.0009 357 74.7862C348.622 72.2152 339.109 75.8575 335.4 78Z" fill="#B4BAFF"/>
<path d="M100.8 94C99.84 89.2987 94.5333 86.899 92 86.2869C98.08 84.8177 100.933 89.3477 101.6 91.7963C108.32 88.2703 112.667 90.572 114 92.1635C108.88 90.6944 103.067 92.7757 100.8 94Z" fill="#B4BAFF"/>
<path d="M105.292 289.721L48 323.707H373.939L318.225 289.721H105.292Z" fill="#8C96FF"/>
<path d="M191.625 226.527L180.801 250.42L201.563 283.922H222.499L242.017 249.854L229.935 226.527H191.625Z" fill="#3F4553"/>
<path d="M180.801 250.42C180.801 250.42 134.237 255.312 122.557 271.883C110.876 288.454 116.371 306.446 127.749 306.446C148.692 306.446 193.005 308.187 213.971 306.446L215.222 267.65L180.801 250.42Z" fill="#3F4553"/>
<path d="M240.812 249.596C240.812 249.596 289.574 255.312 301.254 271.883C312.935 288.454 306.204 299.433 296.062 306.446C281.789 316.323 230.344 314.685 203.662 302.687L208.597 267.65L240.812 249.596Z" fill="#3F4553"/>
<path d="M242.957 282.141L239.66 270.565L243.768 268.083C243.768 268.083 243.199 261.234 248.225 259.916C253.25 258.598 259.239 263.006 265.075 259.453C270.457 256.177 277.044 253.16 283.191 257.691C284.101 258.361 284.525 259.834 284.215 261.172L284.192 261.275C283.881 262.625 282.911 263.459 281.872 263.315C279.705 263.016 275.839 263.078 272.019 266.219C265.432 271.657 242.957 282.141 242.957 282.141Z" fill="#FEBBA0"/>
<path d="M281.319 282.8C281.319 282.8 248.778 274.942 180.233 273.727L173.615 285.92C173.615 285.92 190.67 299.165 206.679 303.954C222.688 308.743 277.954 323.82 302.634 300.596L281.319 282.8Z" fill="#3F4553"/>
<path d="M206.679 303.964C190.268 298.815 173.1 285.612 173.1 285.612L174.123 283.253" stroke="#6E758F" stroke-width="1.5925" stroke-miterlimit="10" stroke-linecap="round"/>
<path d="M180.233 273.727C180.233 273.727 255.54 271.389 275.634 287.229" stroke="#6E758F" stroke-width="1.5925" stroke-miterlimit="10" stroke-linecap="round"/>
<path d="M143.265 280.359C143.265 280.359 157.015 271.605 166.414 277.342" stroke="#6E758F" stroke-width="1.5925" stroke-miterlimit="10" stroke-linecap="round"/>
<path d="M175.2 283.902L180.225 273.5L175.2 269.803C175.2 269.803 173.441 263.819 168.514 261.965C163.579 260.122 160.07 263.098 154.453 258.938C149.276 255.096 142.879 251.399 136.496 255.261C135.556 255.827 135.041 257.249 135.276 258.618L135.291 258.721C135.526 260.101 136.443 261.028 137.482 260.997C139.657 260.925 143.515 261.399 147.138 264.942C153.392 271.059 175.2 283.902 175.2 283.902Z" fill="#FEBBA0"/>
<path d="M218.466 274.097L239.053 271.348" stroke="#6E758F" stroke-width="1.5925" stroke-miterlimit="10" stroke-linecap="round"/>
<path d="M192.285 261.976L203.768 273.273" stroke="#6E758F" stroke-width="1.5925" stroke-miterlimit="10" stroke-linecap="round"/>
<path d="M189.321 108.224C189.806 114.671 193.937 119.368 198.546 118.729C203.154 118.091 206.497 112.344 206.012 105.907C205.527 99.4599 201.396 94.7636 196.787 95.4022C192.186 96.0304 188.843 101.777 189.321 108.224Z" fill="#3F4553"/>
<path d="M206.535 112.91C206.535 112.91 191.891 109.903 189.586 91.1281C187.555 74.5366 195.749 61.2408 204.731 58.9442C204.739 58.9442 226.319 104.136 206.535 112.91Z" fill="#3F4553"/>
<path d="M206.869 60.7259C205.792 61.4468 204.769 62.3943 203.837 63.6199C195.491 74.5264 200.774 95.7008 208.248 105.258C212.387 110.541 218.436 113.003 223.719 110.305C231.443 106.36 233.861 94.4752 232.292 83.888C231.125 75.9991 227.903 68.553 223.15 63.9185C218.398 59.2944 211.978 57.3376 206.869 60.7259Z" fill="#FDBCA0"/>
<path d="M205.481 98.8728C204.019 100.84 201.472 101.643 199.516 100.706C197.56 99.7688 195.953 97.2662 195.446 94.362C194.991 91.7564 195.483 88.7903 196.893 87.194C198.303 85.5977 200.843 85.7006 202.048 87.7707L205.481 98.8728Z" fill="#FDBCA0"/>
<path d="M203.344 91.952L204.883 129.378C205.087 136.299 209.218 141.798 214.312 141.932C220.194 142.097 224.81 135.115 224.06 127.184L220.952 92.4361L203.344 91.952Z" fill="#FDBCA0"/>
<path d="M223.044 115.897L222.658 110.768C222.658 110.768 215.078 113.93 208.248 105.248C208.248 105.258 212.182 115.011 223.044 115.897Z" fill="#DF8370"/>
<path d="M200.335 86.2979C210.204 85.6079 219.209 76.6067 224.181 65.0102C224.181 65.0102 215.1 53.3004 201.828 60.1492C190.829 65.8135 200.335 86.2979 200.335 86.2979Z" fill="#3F4553"/>
<path d="M201.419 94.9078C200.282 95.0622 199.289 94.228 199.198 93.0437C199.129 92.1477 199.592 91.3135 200.304 90.8809" stroke="#444359" stroke-width="1.1144" stroke-miterlimit="10" stroke-linecap="round"/>
<path d="M225.129 91.9829C225.356 91.0457 225.75 90.3042 226.19 89.6039L226.402 90.5102C225.902 90.2527 225.629 89.8613 225.349 89.4803C225.083 89.0786 224.848 88.677 224.636 88.2444C224.212 87.3896 223.855 86.4833 223.598 85.5255C224.128 86.2567 224.613 87.0086 225.121 87.7295C225.379 88.0796 225.622 88.4401 225.887 88.7491C226.137 89.0477 226.433 89.3567 226.637 89.4288L227.251 89.6245L226.849 90.3351C226.44 91.0663 225.985 91.746 225.356 92.2404C225.28 92.3022 225.189 92.261 225.144 92.1683C225.121 92.0962 225.121 92.0344 225.129 91.9829Z" fill="#444359"/>
<path d="M227.35 95.2579C227.047 96.1025 226.531 96.8337 225.864 97.2765C225.205 97.74 224.386 97.8327 223.658 97.5443C222.915 97.2662 222.339 96.6071 221.847 95.9274C221.627 95.5566 221.407 95.1755 221.225 94.7842C221.066 94.3619 220.899 93.95 220.778 93.5174C221.058 93.8058 221.301 94.1147 221.543 94.4237L222.294 95.2682C222.824 95.742 223.325 96.2569 223.901 96.4423C224.454 96.6792 225.045 96.6689 225.629 96.4526C226.205 96.226 226.781 95.7832 227.35 95.2579Z" fill="#444359"/>
<path d="M219.413 81.7973C219.709 82.992 219.876 84.2279 219.815 85.5564C219.777 86.2052 219.664 86.9159 219.307 87.5441C218.944 88.1826 218.33 88.4607 217.791 88.4401C217.238 88.4298 216.692 88.1002 216.321 87.6368C215.934 87.1733 215.631 86.6378 215.404 86.0714C214.949 84.9282 214.661 83.7335 214.517 82.477C214.494 82.2814 214.593 82.096 214.737 82.0548C214.873 82.0239 214.994 82.1372 215.032 82.302L215.04 82.3226C215.298 83.4348 215.639 84.5574 216.078 85.5255C216.518 86.4627 217.117 87.3278 217.822 87.2969C218.17 87.3175 218.496 87.1939 218.693 86.8541C218.913 86.5245 219.019 85.989 219.08 85.4431C219.194 84.3411 219.118 83.1259 218.981 81.9621V81.9415C218.959 81.7767 219.05 81.6119 219.171 81.5913C219.269 81.5707 219.376 81.6634 219.413 81.7973Z" fill="#444359"/>
<path d="M230.42 79.4595C230.67 80.4688 230.806 81.4987 230.791 82.6006C230.783 83.1465 230.708 83.7438 230.45 84.3103C230.2 84.9076 229.639 85.2784 229.154 85.2475C228.646 85.2372 228.183 84.8767 227.888 84.4545C227.585 84.0219 227.35 83.5584 227.175 83.0641C226.834 82.0754 226.622 81.0661 226.516 80.0053C226.493 79.8096 226.599 79.6242 226.751 79.5933C226.88 79.5727 227.001 79.6757 227.039 79.8405L227.046 79.8611C227.266 80.788 227.532 81.7355 227.873 82.5594C228.214 83.3628 228.676 84.1352 229.184 84.094C229.442 84.1043 229.646 84.0013 229.783 83.7129C229.934 83.4246 230.01 82.9817 230.056 82.5182C230.132 81.5913 230.071 80.5717 229.988 79.6036V79.583C229.972 79.4183 230.063 79.2638 230.185 79.2329C230.283 79.2329 230.389 79.3256 230.42 79.4595Z" fill="#444359"/>
<path d="M238.606 132.777C238.538 126.494 223.545 121.469 223.545 121.469C222.605 122.88 220.99 125.259 214.191 125.259C207.687 125.259 205.087 122.972 204.072 121.469H197.636C196.204 121.469 194.892 122.581 194.293 124.352C181.4 162.674 188.646 205.476 191.618 226.517C191.891 228.453 218.8 227.145 230.935 228.453C233.558 228.752 238.864 155.609 238.606 132.777Z" fill="#FEE6C6"/>
<path d="M207.293 186.969C208.627 172.324 210.257 163.539 211.508 166.423C212.614 168.977 212 181.789 210.34 194.148C210.348 194.148 206.725 193.241 207.293 186.969Z" fill="#FEBBA0"/>
<path d="M216.101 186.969C214.767 172.324 213.137 163.539 211.887 166.423C210.78 168.977 211.394 181.789 213.054 194.148C213.046 194.148 216.67 193.241 216.101 186.969Z" fill="#FEBBA0"/>
<path d="M260.535 183.334H243.594L246.284 206.712L215.54 186.331C215.434 184.765 215.29 182.829 215.116 180.78C213.956 180.78 212.789 180.78 211.629 180.759C211.636 182.541 211.659 183.746 211.659 183.746C211.659 183.746 211.06 194.498 212.432 198.082C215.04 204.899 241.714 226.857 249.119 229.462C249.582 229.627 250.044 229.751 250.507 229.833C257.654 231.203 262.392 225.755 262.339 215.95L260.535 183.334Z" fill="#FEBBA0"/>
<path d="M207.975 180.677C207.71 182.984 207.475 185.208 207.293 186.969L177.436 205.754L178.694 183.344H161.753L159.956 215.981C159.911 225.786 164.648 231.223 171.788 229.864C172.251 229.771 172.713 229.648 173.176 229.493C180.581 226.888 205.391 208.669 210.689 198.04C212.258 194.899 211.515 184.322 211.515 184.322C211.515 184.322 211.515 182.86 211.485 180.78C210.317 180.749 209.15 180.718 207.975 180.677Z" fill="#FEBBA0"/>
<path d="M183.03 196.125C189.654 169.502 189.601 169.482 197.735 121.479C192.292 121.983 191.731 120.779 187.441 123.806C174.57 132.89 162.45 162.726 158.88 196.125H183.03Z" fill="#FEE6C6"/>
<path d="M242.017 193.499C238.121 174.641 223.545 121.479 223.545 121.479C238.121 120.809 258.011 146.629 262.771 190.049L242.017 193.499Z" fill="#FEE6C6"/>
<path d="M238.614 151.86L235.544 186.135" stroke="#EED2AD" stroke-width="1.5925" stroke-miterlimit="10" stroke-linecap="round"/>
<path d="M185.819 157.483L188.26 194.148" stroke="#EED2AD" stroke-width="1.5925" stroke-miterlimit="10" stroke-linecap="round"/>
<path d="M384.248 115.025C336.249 101.525 343.248 142.025 353.248 142.025C357.357 142.025 365.873 143.025 376.249 143.025H407.749C447.748 143.025 459.249 140.358 459.749 139.525C463.249 113.025 442.082 115.525 430.749 118.525C432.582 108.692 430.649 88.8252 408.248 88.0252C385.848 87.2252 382.915 105.692 384.248 115.025Z" fill="#B4BAFF"/>
<path d="M46.7557 39.7874C25.7283 33.8992 28.7946 51.5638 33.1753 51.5638C34.9751 51.5638 38.7059 52 43.2514 52H57.0509C74.5738 52 79.6117 50.8369 79.831 50.4734C81.3643 38.9151 72.0916 40.0055 67.1267 41.314C67.9299 37.025 67.0828 28.3599 57.2696 28.011C47.4564 27.662 46.1715 35.7165 46.7557 39.7874Z" fill="#A6ADFB"/>
<circle cx="78" cy="17" r="6" fill="#A6ADFB"/>
<circle r="3" transform="matrix(1 0 0 -1 69 3)" fill="#A6ADFB"/>
</svg>
